<svg id="Layer_1" data-name="Layer 1" xmlns="http://www.w3.org/2000/svg" viewBox="0 0 1920 1080"><defs><style>.cls-1{fill:#866dcf;}</style></defs><g id="Left_leg" data-name="Left leg"><path class="cls-1" d="M118.86,910.35c0-.11,0-.19,0-.19S118.84,910.24,118.86,910.35Z"/><path class="cls-1" d="M167.17,984.92c17.83,5.27,11.71-11.7-1.17-16.39-7.07-2.57-2.87-2.21-5.86-4.68s-2.34-9.37-2.34-9.37-6.65-9.93-6.39-15.52,6-23.82,6-23.82c.82-2.64-12.57-.76-25,1-11.35,1.6-13.3-4.66-13.56-5.78a13.4,13.4,0,0,1-.16,4.79c-.59,3.32-10.39,23.59-14.84,30.28a28.41,28.41,0,0,0-4.6,13.75C112,959.57,149.34,979.65,167.17,984.92Z"/><path class="cls-1" d="M222.15,1001.16c-5.29.56-47.42,2-53.49,1.61s-30.6-5-30.6-5l-2.43,5.11s-.78.35-2.43,1.3-13.33,0-13.33,0l-24.46-1.82c-3.38,4.17-1.13,7.11-1.13,7.11s36.41,1.56,37.45,1.56,5.2-4.94,5.2-4.94l3.21-4.51s10.4,1.74,27.57,3.9,59.72-2.08,62.59-2.86,2.42-3.9,2.42-3.9A52.08,52.08,0,0,1,222.15,1001.16Z"/><path class="cls-1" d="M226.44,977.28c-16.73-3.8-33.72-1.23-44.14-10.62s-25.28-16.2-24.87-13.18c0,0-1.52,9.35,4.67,13.28s17.21,10.11,14.64,14.94-14.49,0-14.49,0-45-19.77-48.75-21.28-11.77-5.74-14-2.11-15.24,6.49-11.32,29.13c0,0,2.72,8.45,5.28,10.41s21.71,2,29,3,11.79-2,11.79-2,.65-4.08,1.73-4.71c6.37-3.72,14.57,2.36,29.13,4.71s56.18-1.81,61-2.51,6.94-2.2,6.94-2.2S243.17,981.07,226.44,977.28Z"/></g><path class="cls-1" d="M121.77,908c0-.09,0-.18,0-.27s.13.2.38.51ZM473,904.26s5.76-2-8.07-.11-16.14-21.52-16.14-21.52C452.58,889.38,485.09,901.56,473,904.26Zm.62,19.24c-1.92,3.85-12.68,11.92-12.68,11.92-.86-.51-1.7-1-2.54-1.58l-.18.19-8.48-6.62.23-.16C442,920,435.39,910.69,429.7,900.56l7.78-5.19-27.66-54.1c27.66,13.83,32.66,41.5,38.42,57.64s27.67,7.69,22.67,9.61-16.14,1.92-20,0-3.84,12.68,8.07,7.68,19.21.39,19.21.39A37.4,37.4,0,0,0,473.6,923.5Z"/><path class="cls-1" d="M121.77,908l.34.24c-.25-.31-.38-.51-.38-.51S121.76,907.92,121.77,908Z"/><path class="cls-1" d="M388.07,907l-.16-.25s-27-3.64-25.68-3.64h-9.08s-23.49,10.57-42.54,18.3A183,183,0,0,0,324,938.83c9.08,10.38,19.46,35,19.46,35l9.08-5.19,5.19,5.19A16.2,16.2,0,0,1,363,967c-5.34-8.36-37.14-39.2-37.14-39.2l45.33,34.44c2.77-1.27,6-2.56,9.81-4,14.28-5.19,22.71-22.7,22.71-22.7a9.39,9.39,0,0,0-1.95-11c-4.72-4.73-12.68-19.14-14.06-21.67l-1,.12C386.18,903,386.79,904.6,388.07,907Z"/><path class="cls-1" d="M387.53,897.31h-35l-44.11,20.76s.8,1.29,2.22,3.38c19.05-7.73,42.54-18.3,42.54-18.3h9.08c-1.3,0,25.68,3.64,25.68,3.64l.16.25c-1.28-2.44-1.89-4-1.29-4l1-.12-.21-.39Z"/><path class="cls-1" d="M228.6,477.59h0l1.34,1.37C229.13,478.1,228.61,477.6,228.6,477.59Z"/><path class="cls-1" d="M228.6,477.59h0C228.59,477.68,228.6,477.67,228.6,477.59Z"/><polygon class="cls-1" points="228.59 477.59 228.6 477.59 228.6 477.59 228.59 477.59"/><path class="cls-1" d="M219,217.39a4.41,4.41,0,0,0-.61-.24Z"/><path class="cls-1" d="M345.64,497.87l0-.05Z"/><g id="right_leg" data-name="right leg"><path class="cls-1" d="M536.69,958.09c-6.35-.82-10.14,6.23-12.69,9.2-7.54,8.79-26.8,23.32-35.59,29.67s-24.75,2.66-29.26,1.84-24.54,8.79-24.54,8.79l3.68,8.8,20.25-6.14-.82-2.66c-1.22-2.25,1.43-4.29,1.43-4.29,29.87,5.73,40.1-7.78,46.65-13.5s35.29-28.23,35.29-28.23S543,958.91,536.69,958.09Z"/><path class="cls-1" d="M436.34,919.82A89.19,89.19,0,0,0,467,945.06l-3,4.67S443.05,933.45,436.34,919.82Z"/><path class="cls-1" d="M421,974.21s-4.33,22.67,13,29.68c0,0,20.67-10,25.34-8.67s20.34,3.66,27-1,29.57-22,37.35-31.35c2.88-3.48,6.24-10.67,16.34-7.67,0,0,2.67-10-8.34-9.16s-17.34,5.82-31.34,2.49S472,942.86,472,942.86s-16.9,3.42-15,24.64l-5.28,7.71L425,970.54S421.36,971.18,421,974.21Z"/><path class="cls-1" d="M464.22,950.25s-15.74-9.1-16.08-5a38.71,38.71,0,0,1-1,6.5l-28.41-48c-10.6,1.51-26.77-1.77-31.74-2.09.37,1.13.8,3.95,1.31,5.19,3.78,9.17,14.82,23.83,21.83,33.17s11.8,27,10.8,34.34l31.27,2.41,5.95-9.77S458,953.25,464.22,950.25Z"/></g><g id="chanting_bag" data-name="chanting bag"><path class="cls-1" d="M397,507c-14.27-13-25.95-51.9-25.95-55.79S367.18,433,367.18,433s4.47-148.39-60.4-206.77c39.36,59.84,58,152.27,48.06,207.56-19.87-52.7-26.43-64.42-33.73-85.63C280.3,229.65,238,195.11,238,195.11l-4.39,3.63c15,17.3,28.14,36.95,39.71,57.76l13.41,26q2.47,5.2,4.85,10.47c12,26,22.26,49.17,29.52,69.44,27.44,76.6,27.45,114.44,27.8,126.61-.23.58-.46,1.14-.68,1.68,1.85,11.74,2.62,18.53,2.62,18.53h0c.81,11.55,1.89,21.28,5.95,27.55.45.71.88,1.41,1.27,2.11-.16,6.79-.15,54.33,31.16,62.76C423,610.77,441.3,542.21,397,507Zm-2.35,50.9c1.3-25.94-19.46-51.89-23.36-54.49s16.87,76.55,16.87,76.55-9.08-18.16-14.27-35c-6-19.61-18.17-86.93-18.17-86.93s-6.48-28.54,0-14.27,11.68,29.84,22.06,50.6c7.06,14.12,20.76,40.22,22.06,53.19S394.67,557.88,394.67,557.88Z"/></g><path class="cls-1" d="M181.94,677.9c-.13,0-.27,0-.41-.06-6.85-1-13.32-1.94-17.43-4.28-8.92-5.07-13-45.77-14.77-75.43-3.56,21.63-9,44.23-9,44.23l5.19,3.9v2.59l7.78,3.89s-14.27,53.2-16.86,80.45c-2,21.14-1.69,60.23-1.44,76.7Z"/><path class="cls-1" d="M250.64,536.42l-.31-.25-14-27.07c-6.81,5.46-18.3,8.19-29.14,10.24,1.09,2.67,1.92,4.94,2.46,6.74,1.22,4.06-.41,8.12-1.11,9.86a55.07,55.07,0,0,1-2.68,5.14c-.73,1.57-.83,2.84-.31,3.78,1,1.85,4.23,2.6,5.38,2.74l1.87.2-.21,1.87c-.2,1.79,0,3.11.55,3.73.12.14.51.58,1.73.58a11.94,11.94,0,0,0,4.44-1.19l2.35,2.79c-1.42,1.9-1.71,3.74-.84,5.46a7.38,7.38,0,0,0,5.56,3.81h.14c1.72-.14,6.11-4.7,9.13-8.87l.86-1.19,1.36.55c2.54,1,2.67,4.86,2.5,8.1-.12,2.3-.45,4.49-.58,5.33l.45,2.19-4.64,11.56-.08.13c-1.26,2.06-2.64,7.09-3.15,9.21.21,1.92.87,1.92,1.16,1.92a3.54,3.54,0,0,0,1.38-.36,157.53,157.53,0,0,0,9.92-14.63c6.33-10.23,8.49-27.57,9.12-34.56A9.61,9.61,0,0,0,250.64,536.42Zm-14,54.2c-2.48,2.36-3-.64-3-.64a4.57,4.57,0,0,1,1.69-2.7c1.57-1.38,3.95-.34,3.95-.34Z"/><path class="cls-1" d="M178.89,714.77c-2.94-1.16-5.24-2.79-6.14-4.19L153,764.72c1.5-.62,4.49-.3,7.66.94a13.77,13.77,0,0,1,5.88,3.93L185.89,716A14.49,14.49,0,0,1,178.89,714.77Z"/><path class="cls-1" d="M217,608.25a16.07,16.07,0,0,1-5.71-3.55l-19.09,52.43c1.31-.81,4.2-.64,7.27.57s5.37,3.1,5.74,4.59l19-52.81A14.74,14.74,0,0,1,217,608.25Z"/><path class="cls-1" d="M158.48,771.28c-3.11-1.22-5.49-3-6.21-4.45L138,806.15l-4.85,13.6c1-1.22,4.25-1.17,7.76.21,3.25,1.28,5.61,3.28,5.83,4.8l18.86-52.35A13.6,13.6,0,0,1,158.48,771.28Z"/><path class="cls-1" d="M197.26,663.32c-3-1.18-5.2-3-5.69-4.44L173.67,708c1.6-.44,4.44-.07,7.43,1.11A14.76,14.76,0,0,1,187,713l17.71-49.16C203.44,664.71,200.44,664.57,197.26,663.32Z"/><path class="cls-1" d="M115.51,890.07c-3-1.16-5.22-2.85-6-4.27L69,999.36s4.9,7.35,13.48,4.9L122.89,891C121.4,891.57,118.53,891.26,115.51,890.07Z"/><path class="cls-1" d="M138.66,825.58c-3.39-1.34-5.8-3.44-5.85-5l-22.46,62.95c1.49-.59,4.36-.28,7.38.91s5.22,2.85,6,4.28l3.23-9.09L146.26,826C145.09,827,142,826.88,138.66,825.58Z"/><path class="cls-1" d="M392.07,818.82c0-13,1.3-22.06,0-38.93s-5.19-25.95-5.19-25.95.24-2.28.42-6.13h0c9.5-36,2.18-109.34-13.39-134-11.26-17.82-30-33.4-30.61-90.61-.08-7.3,0-13.64,1.08-19.89-3.13-68.71-52-198.63-71.05-246.82,4.73,8.51,9.2,17.22,13.41,26,1.65,3.54,3.26,7,4.85,10.47,35,77.59,50.93,161.41,56.64,197.73,6.11-15,16.85-45.46,16.6-61.16-.89-54.88-6.28-151.29-60.32-205.61,2.28,5.21,2.63,9.25,1,12a7,7,0,0,1-5.74,3.26c-.65,0-1.3,0-2,0a36.44,36.44,0,0,1-8.53-1l.19.08a48.62,48.62,0,0,1-10.12-3.76,43.42,43.42,0,0,0,1.1,6.21,47.84,47.84,0,0,0,3,6.83c12,23.31,25,60,31.78,80.55,2.41,7.34,6,19.21,9.58,29.39S346.42,405,346.42,405s2.34-22.57-3.64-74.56c-5.41-46.93-30.91-89-36-96.75a3.89,3.89,0,0,0,0-.47c3.16,4.88,35,55.2,41.18,111.9,6.49,59.69,3.94,85.6,3.94,85.6s-19.51-42.78-23.4-54.46-7.77-25.3-10.38-33.73C310.81,319,296.68,276.79,283.67,250a57.84,57.84,0,0,1-3.24-7.85,73.45,73.45,0,0,1-1.67-7.94c-.85-.44-1.7-.9-2.55-1.4A86,86,0,0,1,257.1,217a142,142,0,0,1-17.41-23.35,22.3,22.3,0,0,1-9.14,6.71c-5.3,1.86-12.18,6.07-15,7.84a13,13,0,0,0-6.45,6c-2.59,5.19-11.67,3.89-24.65,22s-35,64.88-40.22,76.55-6.49,35-10.38,37.63-24.65,48-25.95,59.68,0,33.74,18.17,58.39,26,45.41,26,45.41-2.6,32.43,0,50.6c.66,4.65.22,12-.81,20.41,1.53,32.12,5.65,81.55,14.14,86.38,3.68,2.09,9.92,3,16.52,4l1.17.17,39.17-110.22c-3-2.11-5.33-6.11-1.91-10.69,0,0-10.42,5.29-9.45-4.76l-.22-.27c-1.51-.23-9.79-1.85-6.28-9.21,0,0,2-3.42,2.6-5s2.08-5.18,1.05-8.61c-.92-3.07-2.51-6.88-3.27-8.68l-5.56,1c-1.33.25-2.57.49-3.69.73-18.16,3.89-18.16,19.46-24.65,24.65s-9.73-5.84-9.73-5.84,2.59-5.19,11.67-15.57,24.66-5.19,53.2-13c24.49-6.68,8.87-25.77,3.94-31.07l-1.34-1.37c0,.08,0,.09,0,0,0-2.9-6.48-14.27-10.37-16.87-8.71-5.8-13.73-6.86-18.54-9.92-5.48-3.47-10.76-6-13-7.78-6.51-5.16-6.11-.46,4.27-10.84s-18.17-9.08-35-14.27,0-7.79,15.57-6.49S178,389.36,178,389.36c19.47,22.06,0,25.95-3.89,28.55s19.46-1.3,23.36,6.48-7.79,16.87-7.79,16.87,15.57,10.38,28.55,15.57c10,4,10.38,19.68,10.38,20.76,0,0,.53.51,1.34,1.37,12.61,13.18,12.57,21.71,6.83,27.47.09-.1.2-.18.29-.27L252,535s4.56,3.64,4,9.45-2.53,24.28-9.4,35.37S236.3,595,236.3,595a6,6,0,0,1-.81.38l-30.43,85.72c7.66,3.85,13.05,10.44,12.32,22.68-.67,11.13-2.34,22.39-3.81,32.33-2.57,17.37-4.8,32.38-.14,36.82,2.23,2.13,10.71.78,19.68-.66,20.4-3.26,48.34-7.73,61.28,13.31,16.7,27.15,85.22,29.3,97.59,29.46,0,.81,0,1.69,0,2.61-12.83-.11-82.16-2-99.8-30.71-12-19.56-39-15.25-58.66-12.11-10.87,1.74-18.72,3-21.89,0-5.62-5.37-3.42-20.25-.63-39.08,1.47-9.89,3.13-21.09,3.79-32.1.64-10.65-3.88-16.53-10.61-20.05L137,872.93h0c-.81,6.51-2.43,12.7-5.68,17.26a83.27,83.27,0,0,0-9.09,15.57,4.49,4.49,0,0,0,0,2.53c4.46,2.92,15.37,5.11,40,3.68h.19a78.63,78.63,0,0,1,20.81,1.58c19.47,3.89,105.1,16.87,124.56,9.08l2.87-1.16c-1.42-2.09-2.22-3.38-2.22-3.38l44.11-20.76h35v5.19l.21.39c5.26-.64,30.79-3.76,36.3-5,6.1-2,7-3.83,7-3.83S392.07,831.79,392.07,818.82ZM354.43,679.53s-41.5-63.44-62.25-100.61S273,501.58,274.57,473.29s-2.92-40.12-4.46-50.19-21-43.71-24-121.3c-2.79-70.32-23.25-82.7-27.06-84.41l-.61-.24a4.41,4.41,0,0,1,.61.24c28,10.84,41.6,81.69,44.1,109.55,2.52,28.06,21.94,116.92,21.94,116.92,30.54,86,20,104.59,20,104.59s-12-66.51-16.76-68.5c-14.46-6.06-3,50,7.69,80.68,10.16,29.1,44.57,74.68,60.71,110.65s16.91,67.46,16.91,67.46C366.12,698.15,354.43,679.53,354.43,679.53Z"/><path class="cls-1" d="M299.43,234.9h-.05c-16.35-.1-31.59-11.49-41.5-21A145.38,145.38,0,0,1,242,195.57a147.51,147.51,0,0,0,15.85,19.87c9.8,10.54,25,22.9,41.94,21.92a6.09,6.09,0,0,0,5-2.79c1-1.72,1.12-3.17.37-6.12a7.3,7.3,0,0,1-1.47,4.73A5.24,5.24,0,0,1,299.43,234.9Z"/><path class="cls-1" d="M303.43,228a4.8,4.8,0,0,1-3.59,1.21,18.67,18.67,0,0,1-3.61-.45l-.56-.1c-15.57-2.74-29.61-12.46-38.64-20.13a130.38,130.38,0,0,1-16-16.14.44.44,0,0,1-.09-.31l-.19.25a.55.55,0,0,1,.2.17A184.43,184.43,0,0,0,258.54,212c9.78,9.42,24.81,20.66,40.85,20.76a4.38,4.38,0,0,0,3.52-1.39c1-1.18,1.41-1.85,1.2-4.47A3.4,3.4,0,0,1,303.43,228Z"/><path class="cls-1" d="M236.08,568c1-3-.54-9.54-.54-9.54s-.45.72-3.73,5c-2,2.6-5.14,3.08-7.35,3.05l-10.07,29.65-1.86,5.11a16,16,0,0,1,6.7,1.3,15,15,0,0,1,6.06,3.94l3.32-9.22,1.36-3.79C226,592.36,235.14,570.83,236.08,568Z"/><path class="cls-1" d="M350.48,173.92c-.34.05-.69.09-1,.12-1.78.16-3.5.05-5.3.14a31.35,31.35,0,0,0-10.55,2.19c1.77-.3,3.51-.69,5.28-1a33.22,33.22,0,0,1,7.9-.52,12.78,12.78,0,0,0,3.32-.22"/><path class="cls-1" d="M351,169.7c.13,0,.1-.1.07-.22-1.63-5.16-.76-8.09-.49-8.82,0,0,.1-.14.12-.2,2.9-.67,6.79.16,6.66-4.69-.17-6.87-6.23-17.93-13.36-25.67h0l.89-.43a.71.71,0,0,0,.38-.62v-4.57c0-.73.46-2.28,1.68-2.42a.69.69,0,0,0,.59-.8c-.18-1-.47-2.56-.74-3.7a.47.47,0,0,1,0-.17,5.69,5.69,0,0,0-1.07-3.76c-2-2.59-1.47-9.06-4.25-16.46S324.79,62,276.84,60.52c0,0-27.75-.33-41.13,17s-16.65,40.48-15,50.27,7.63,16.73,8.49,17.3a30.27,30.27,0,0,0,3.44,1.75.68.68,0,0,1,.4.72c-.34,2.45-1.21,13.24,8.17,20.72a.69.69,0,0,1,.22.77c-.62,1.73-2.72,7.85-2.44,10.64s3,7.76,3.72,9.11a.68.68,0,0,1,0,.7c-.26.43-.77,1.22-1.46,2.2a.45.45,0,0,1,.54.14c.06.08,6.2,6.22,15.9,14.46,8.94,7.59,22.82,17.2,38.18,19.9l.58.11c1.74.34,5,1,6.33-.49.76-.81.87-.67.34-2.66a.06.06,0,0,0,0,0c-.06-.14-.13-.27-.2-.42a.46.46,0,0,1,.22-.62.42.42,0,0,1,.22-.05c0-.15,0-.24,0-.24a78.6,78.6,0,0,1,5.55-8.49,49,49,0,0,0,4.65-7.36.71.71,0,0,1,.76-.35c2.26.48,11.42,1.83,15.27-6.49a.68.68,0,0,1,.74-.38c2.42.43,12.4,1.84,14.13-3.78,2-6.41-.25-6.91,1.72-9.86s3.47-2.86,4.26-4.69a7.65,7.65,0,0,0,0-1.79c-.07.57-.42.46-1.19.65-2.6.62-12-2.41-16-2.41a37.7,37.7,0,0,0-3.87.23l.8-.43c8.64-4.53,7.27-4,11.13-5.41,4.23-1.58,6.4-1.69,7.4-.9.18.14.65.28.84.15a5.67,5.67,0,0,1,1-.55Zm-76.26,7.21c-5,1.25-7.49-2.5-11.24-7.49s-6.24-11.24-8.74-16.23-1.25-8.74,2.5-16.23,10-5,15-3.75,6.24,7.49,6.24,7.49,0,3.75-1.25,5-1.25-3.75-2.49-6.24c-1.77-3.54-10-6.25-13.74-3.75-3.35,2.24-8,13.85,3.75,31.21,0,0,6.24,8.74,8.74,7.49,2.15-1.07,5.85-4.76,3.74-8.74.6-1.17,1.25,0,1.25,0l1.25,2.5C281,170.67,279.74,175.66,274.75,176.91Zm-.15-18.86c1.16,1.18,0,2.36-2.32,1.18s-7-1.18-9.29-4.72,0-4.73,2.32-8.27a12.48,12.48,0,0,1,5.81-4.73C253.7,158.05,273.44,156.87,274.6,158.05Zm71.95-41.14c.32,0,.94,3.75.94,3.75a3,3,0,0,0-3.75,1.25C343.43,117.14,346.23,116.91,346.55,116.91Zm2.08,20.36s-.85-.94-5.34-3.54-5.5-2.39-5.5-6.14c0-1.87.71-2.54,1.41-2.75a3,3,0,0,0,2.23.21l.31-.21c1.3.62,1.67,2.29,1.67,3.38a3,3,0,0,0,1,2.29C348.85,135.46,348.63,137.27,348.63,137.27Zm-6.74-18.44c-.3-15.3-6.8-30.72-19.23-39,0,0,18.93,7.14,20,40,.1,1.57.07,4.12-1.05,5-.89.6-2.17.68-3.73-1.59-3.55-5.17,2-26.35-21.12-42.46a33.3,33.3,0,0,1,15.54,15.79c3,6.55,4,10.38,5.18,18.2l1.2,6.71C339.49,123.48,342,126.55,341.89,118.83ZM310,121.66c5-2.49,24-3.74,24-3.74,1.88,5.62-2.49,5.48-2.49,5.48s-12.19.14-17.19.14A21.29,21.29,0,0,0,305,126S305,124.16,310,121.66Zm-2.18,11.87c12.66,1.15,23.75-3.84,24.82-4.58l.16-.73s0,.24,0,.63h0c0,.06,0,.12,0,.18-.06,2.35-.36,9.33-2.05,12.92-2.05,4.37-15.43,4.69-15.43,4.69,14.4-1.33,15-9,15-9l-3.75,1.25a6.05,6.05,0,0,0,4.06-5l-.24-.07c-.69.51-5.24,1.39-6.32,1.63C319.21,136.47,307.82,133.53,307.82,133.53Zm10,42.76c8.74-7.49,17.48-28.72,17.48-28.72C327.8,172.54,317.81,176.29,317.81,176.29ZM345,158.2a15.14,15.14,0,0,1-3.85,1.78,6.15,6.15,0,0,1-2.86-.14,4.52,4.52,0,0,1-1.95-7.27,4.16,4.16,0,0,0,2,6.68,6.5,6.5,0,0,0,5.27-.94,10.41,10.41,0,0,1,5.38-1.66,3.33,3.33,0,0,1,2.38,1.41,3.28,3.28,0,0,0-2.39-1.25C347.64,156.8,346.3,157.65,345,158.2Zm6.35.05a6,6,0,0,1-4.85-.07h5Z"/><path class="cls-1" d="M598,181.81c-5.39,0-8.74-1.48-14.69-6.78l-2.14,7.44c6.41,3.44,11,4.74,17.2,4.74,5.49,0,10.42-1.4,13.77-3.81a19.09,19.09,0,0,0,7.53-15.16,16.56,16.56,0,0,0-3.44-10.42c-2.23-3-5.49-5.21-12-8.18-10.41-4.75-12.83-7.07-12.83-12.19,0-5.3,4.37-9.2,10.23-9.2,4.18,0,8,1.39,13,5l2-6.61c-5.39-2.41-9.3-3.34-14.41-3.34-12.19,0-20.56,7-20.56,17.11,0,7.53,4.09,12.37,14.7,17.39a77,77,0,0,1,9,4.74,9.86,9.86,0,0,1,4.46,8.56C609.82,177.44,605,181.81,598,181.81Z"/><path class="cls-1" d="M638.09,186.28h11.16a11.31,11.31,0,0,1-.37-3V157.54l18.79,26a10.18,10.18,0,0,1,1.3,2.7h13.58a7.62,7.62,0,0,1-2.51-2.42l-20.37-26.78a32.4,32.4,0,0,0,6.88-1.86c6.33-2.42,9.86-7.44,9.86-14.14,0-10-7.91-16.83-19.44-16.83H638.09a12.78,12.78,0,0,1,.37,3V183.3A10.45,10.45,0,0,1,638.09,186.28Zm10.7-57.48h4.37c3.81,0,6.42.84,8.56,2.7a13.51,13.51,0,0,1,4.18,10c0,7.35-5,12.47-12.28,12.47h-4.83Z"/><path class="cls-1" d="M698.17,186.28h11.07a9.23,9.23,0,0,1-.38-3V127.22a9.2,9.2,0,0,1,.38-3H698.17a11.75,11.75,0,0,1,.37,3V183.3A11.77,11.77,0,0,1,698.17,186.28Z"/><path class="cls-1" d="M732.3,186.28h31.43v-5.49a7.54,7.54,0,0,1-3.16.47H743v-54a10.81,10.81,0,0,1,.38-3H732.3a12.25,12.25,0,0,1,.37,3V183.4A11.58,11.58,0,0,1,732.3,186.28Z"/><path class="cls-1" d="M783.45,183.67l6-16.83h23.07l6,16.83a6.8,6.8,0,0,1,.46,2.61h12.09a11.34,11.34,0,0,1-1.48-2.61l-20.93-57.38a8.82,8.82,0,0,1-.46-2h-8.93a10.48,10.48,0,0,1-.47,2.23l-20.27,57.19a13.47,13.47,0,0,1-1.3,2.61h5.86A7.67,7.67,0,0,1,783.45,183.67Zm17.3-49.38,10,28H791Z"/><path class="cls-1" d="M881.47,186.28h11.16a9.8,9.8,0,0,1-.47-3V159.59h6.61c14,0,22.5-6.88,22.5-18.23,0-10.7-7.53-17.11-20.09-17.11H881.47a11.75,11.75,0,0,1,.37,3V183.3A12.85,12.85,0,0,1,881.47,186.28Zm10.69-57.48h6.42c7.53,0,12.18,4.84,12.18,12.74,0,5.12-2.14,9.58-5.76,11.63a13.94,13.94,0,0,1-7.26,1.67h-5.58Z"/><path class="cls-1" d="M938.76,186.28h11.16a11.33,11.33,0,0,1-.38-3V157.54l18.79,26a10.18,10.18,0,0,1,1.3,2.7h13.58a7.62,7.62,0,0,1-2.51-2.42l-20.37-26.78a32.4,32.4,0,0,0,6.88-1.86c6.33-2.42,9.86-7.44,9.86-14.14,0-10-7.9-16.83-19.43-16.83H938.76a13.35,13.35,0,0,1,.37,3V183.3A10.82,10.82,0,0,1,938.76,186.28Zm10.69-57.48h4.37c3.82,0,6.42.84,8.56,2.7a13.51,13.51,0,0,1,4.18,10c0,7.35-5,12.47-12.27,12.47h-4.84Z"/><path class="cls-1" d="M997.9,183.67l6.05-16.83H1027l6,16.83a6.63,6.63,0,0,1,.47,2.61h12.09a11.07,11.07,0,0,1-1.49-2.61l-20.92-57.38a8.87,8.87,0,0,1-.47-2h-8.93a10.43,10.43,0,0,1-.46,2.23L993,183.67a13.47,13.47,0,0,1-1.3,2.61h5.86A7.67,7.67,0,0,1,997.9,183.67Zm17.3-49.38,10,28h-19.81Z"/><path class="cls-1" d="M1061.23,186.28h22.23c10.51,0,17.77-7,17.77-16.93,0-8.55-4.65-13.85-13.77-15.44a26.2,26.2,0,0,0,6-2.32c4.19-2.33,6.61-6.7,6.61-12,0-9.76-6.51-15.34-17.86-15.34h-20.93a9.94,9.94,0,0,1,.38,3v56A10.68,10.68,0,0,1,1061.23,186.28Zm10.7-57.38h6.6c7.44,0,11.16,3.62,11.16,10.78,0,8.56-4.18,12.47-13.3,12.47h-4.46Zm0,27.62h4.56c5,0,7.62.74,10.13,2.79,2.7,2.14,4.1,5.76,4.1,10.32,0,8-3.82,11.91-11.44,11.91h-7.35Z"/><path class="cls-1" d="M1121.5,186.28h11.07a10.46,10.46,0,0,1-.38-3V156.52h27.35V183.3a10.46,10.46,0,0,1-.38,3h11.07a10.45,10.45,0,0,1-.37-3V127.22a10.34,10.34,0,0,1,.37-3h-11.07a11.79,11.79,0,0,1,.38,3V152h-27.35V127.22a11.79,11.79,0,0,1,.38-3H1121.5a11.28,11.28,0,0,1,.37,3V183.3A10.87,10.87,0,0,1,1121.5,186.28Z"/><path class="cls-1" d="M1241.56,165.73V127.22a10.29,10.29,0,0,1,.37-3h-5.39a9.58,9.58,0,0,1,.37,3V165c0,11.07-6.32,17.21-17.48,17.21-10.42,0-16.56-5.86-16.56-15.81V127.22a11.31,11.31,0,0,1,.38-3h-11.07a11.75,11.75,0,0,1,.37,3v39a20.76,20.76,0,0,0,4.37,13.21c4.19,5.39,10.33,7.81,19.62,7.81C1232.63,187.21,1241.56,179.58,1241.56,165.73Z"/><path class="cls-1" d="M1263.79,186.28H1275a9.8,9.8,0,0,1-.47-3V159.59h6.61c14,0,22.5-6.88,22.5-18.23,0-10.7-7.53-17.11-20.09-17.11h-19.71a11.75,11.75,0,0,1,.37,3V183.3A12.85,12.85,0,0,1,1263.79,186.28Zm10.69-57.48h6.42c7.53,0,12.18,4.84,12.18,12.74,0,5.12-2.14,9.58-5.76,11.63a13.94,13.94,0,0,1-7.26,1.67h-5.58Z"/><path class="cls-1" d="M1316.43,183.67l6-16.83h23.07l6,16.83a6.8,6.8,0,0,1,.46,2.61H1364a11.34,11.34,0,0,1-1.48-2.61l-20.93-57.38a8.82,8.82,0,0,1-.46-2h-8.93a11.14,11.14,0,0,1-.47,2.23l-20.27,57.19a14.06,14.06,0,0,1-1.3,2.61h5.85A7.66,7.66,0,0,1,1316.43,183.67Zm17.29-49.38,10,28H1324Z"/><path class="cls-1" d="M1379.76,186.28h21.76c16.93,0,28.92-13,28.92-31.53,0-18.88-12.09-30.5-31.62-30.5h-19.06a10.34,10.34,0,0,1,.37,3V183.3A11.77,11.77,0,0,1,1379.76,186.28Zm10.69-56.92h6.79c13.58,0,22.14,9.77,22.14,25.3,0,16.46-7.72,26.32-20.46,26.32h-8.47Z"/><path class="cls-1" d="M1447.37,183.67l6.05-16.83h23.06l6,16.83a6.82,6.82,0,0,1,.47,2.61H1495a11.07,11.07,0,0,1-1.49-2.61l-20.93-57.38a8.82,8.82,0,0,1-.46-2h-8.93a10.48,10.48,0,0,1-.47,2.23l-20.27,57.19a13.47,13.47,0,0,1-1.3,2.61H1447A7.67,7.67,0,0,1,1447.37,183.67Zm17.3-49.38,10,28H1454.9Z"/><polygon class="cls-1" points="1519.35 126.39 1511.26 123.04 1503.36 142.1 1509.4 144.61 1519.35 126.39"/><path class="cls-1" d="M1570.87,157.82c-2.23-3-5.48-5.21-12-8.18-10.42-4.75-12.84-7.07-12.84-12.19,0-5.3,4.37-9.2,10.23-9.2,4.19,0,8,1.39,13,5l2-6.61c-5.4-2.41-9.31-3.34-14.42-3.34-12.18,0-20.55,7-20.55,17.11,0,7.53,4.09,12.37,14.69,17.39a77,77,0,0,1,9,4.74,9.87,9.87,0,0,1,4.47,8.56c0,6.32-4.84,10.69-11.82,10.69-5.39,0-8.74-1.48-14.69-6.78l-2.14,7.44c6.42,3.44,11,4.74,17.21,4.74,5.48,0,10.41-1.4,13.76-3.81a19.09,19.09,0,0,0,7.53-15.16A16.5,16.5,0,0,0,1570.87,157.82Z"/><path class="cls-1" d="M671.82,812a6,6,0,0,1-.28,2.07H688a32.94,32.94,0,0,1-1.1-4l-12.15-84.87V722H660.78v.83a5.88,5.88,0,0,1-.42,2.35l-24.7,71.9L611.1,725.59a19.4,19.4,0,0,1-.56-3.59h-13.8v4l-13.11,83.77c-.27,1.11-.55,1.93-1.24,4.28h8.28c0-1,0-1-.14-3.45v-.55l10.63-66.8,23.18,67.35a5.9,5.9,0,0,1,.56,2.62v.83h13v-.69a10.71,10.71,0,0,1,.69-3.31L662,741.6l9.66,68.72A7.28,7.28,0,0,1,671.82,812Z"/><path class="cls-1" d="M780,720.62c-28.57,0-45.4,17.25-45.4,46.51,0,31.33,15.87,48.3,45.12,48.3s45.54-17,45.54-47.47C825.27,737.87,808.85,720.62,780,720.62Zm.14,87.63c-19.46,0-29.12-13.66-29.12-40.84,0-25.81,10.07-39.61,29-39.61s28.84,13.8,28.84,40.43C808.85,794.18,798.78,808.25,780.15,808.25Z"/><path class="cls-1" d="M931,725.59l-25.12,73-24.42-72.72a12.33,12.33,0,0,1-.69-3,2.42,2.42,0,0,1,.14-.83H863.5a23.43,23.43,0,0,1,1.93,4.56l28.15,83.76a15.15,15.15,0,0,1,1,3.73h14.21a24.09,24.09,0,0,1,.69-3.73l28.71-84.45a16.33,16.33,0,0,1,1.93-3.87h-8.56A8.5,8.5,0,0,1,931,725.59Z"/><path class="cls-1" d="M984,814.05h47.75v-8.14a21.12,21.12,0,0,1-5.25.69H999.84V770.44h26.91a16.87,16.87,0,0,1,5,.42V763.4a14.33,14.33,0,0,1-5.11.56H999.84V728.77h27.46a11.4,11.4,0,0,1,4.28.69V722H984a15.09,15.09,0,0,1,.55,4.42v83.21A15.67,15.67,0,0,1,984,814.05Z"/><path class="cls-1" d="M1171.51,725.18V722h-13.94v.83a6.07,6.07,0,0,1-.41,2.35l-24.7,71.9-24.57-71.49a20.4,20.4,0,0,1-.55-3.59h-13.8v4l-13.11,83.77c-.28,1.11-.55,1.93-1.24,4.28h8.28c0-1,0-1-.14-3.45v-.55l10.63-66.8,23.18,67.35a6,6,0,0,1,.55,2.62v.83h13v-.69a11,11,0,0,1,.69-3.31l23.46-68.45,9.66,68.72a7.28,7.28,0,0,1,.14,1.66,6.24,6.24,0,0,1-.27,2.07h16.42a33.7,33.7,0,0,1-1.11-4Z"/><path class="cls-1" d="M1251.27,764V728.77h27.47a11.38,11.38,0,0,1,4.27.69V722H1235.4a14.75,14.75,0,0,1,.56,4.42v83.21a15.31,15.31,0,0,1-.56,4.42h47.75v-8.14a21.05,21.05,0,0,1-5.24.69h-26.64V770.44h26.91a16.8,16.8,0,0,1,5,.42V763.4a14.3,14.3,0,0,1-5.11.56Z"/><path class="cls-1" d="M1409.83,726.42a13.09,13.09,0,0,1,.56-4.42h-8.14a16.33,16.33,0,0,1,.55,4.42v69.14l-50.24-70.38c-1.24-1.66-1.38-1.93-1.65-3.18h-14.63a17,17,0,0,1,.55,4.42v83.21a17.72,17.72,0,0,1-.55,4.42h8.14a15.67,15.67,0,0,1-.55-4.42V739l51.2,71.62c.55.83,1.1,1.52,1.52,2.21l.55,1.24h13.38a8.63,8.63,0,0,1-.69-4.14Z"/><path class="cls-1" d="M1454.41,730.42a23.51,23.51,0,0,1,5.79-.69h20v79.9a15.31,15.31,0,0,1-.55,4.42h16.42a15.67,15.67,0,0,1-.55-4.42v-79.9h20a24.85,24.85,0,0,1,5.66.69V722h-66.79Z"/><path class="cls-1" d="M585.53,864v59.39c0,3.88-1.14,5.55-3.61,5.55-1.67,0-2.9-.62-5.19-2.73l-2.9,6a18.34,18.34,0,0,0,9.59,2.64c4.49,0,8.36-1.58,10.21-4.31,1.32-1.76,1.67-3.52,1.67-7.48V864a9.26,9.26,0,0,1,.35-2.82H585.18A10.05,10.05,0,0,1,585.53,864Z"/><path class="cls-1" d="M699.31,863.12a9.18,9.18,0,0,1-.44-1.94h-8.45a9.25,9.25,0,0,1-.44,2.11L670.8,917.41a13.17,13.17,0,0,1-1.23,2.47h5.54a7.38,7.38,0,0,1,.35-2.47l5.72-15.93H703l5.63,15.93a6.43,6.43,0,0,1,.44,2.47h11.44a10.75,10.75,0,0,1-1.41-2.47Zm-16.72,34,9.24-26.49,9.51,26.49Z"/><path class="cls-1" d="M805.09,861.18H794.62A11.37,11.37,0,0,1,795,864v53.06a11.42,11.42,0,0,1-.35,2.82h10.47a8.63,8.63,0,0,1-.36-2.82V864A8.63,8.63,0,0,1,805.09,861.18Z"/><path class="cls-1" d="M904.26,861.18H885.61A11.37,11.37,0,0,1,886,864v53.06a12.5,12.5,0,0,1-.35,2.82h10.56a9,9,0,0,1-.44-2.82V894.62H902c13.29,0,21.3-6.51,21.3-17.25C923.27,867.25,916.14,861.18,904.26,861.18Zm3.61,27.37a13.27,13.27,0,0,1-6.86,1.58h-5.28V865.49h6.07c7.13,0,11.53,4.58,11.53,12.06C913.33,882.39,911.3,886.61,907.87,888.55Z"/><path class="cls-1" d="M1040.31,864v35.72c0,10.48-6,16.28-16.54,16.28-9.86,0-15.67-5.54-15.67-15V864a10.88,10.88,0,0,1,.35-2.82H998a10.91,10.91,0,0,1,.35,2.82v36.87a19.57,19.57,0,0,0,4.14,12.49c4,5.11,9.77,7.39,18.57,7.39,15.22,0,23.67-7.21,23.67-20.32V864a9.64,9.64,0,0,1,.35-2.82H1040A9.26,9.26,0,0,1,1040.31,864Z"/><path class="cls-1" d="M1164.12,917.59l-19.27-25.35a29.78,29.78,0,0,0,6.52-1.76c6-2.28,9.32-7,9.32-13.37,0-9.51-7.48-15.93-18.39-15.93h-17.86a12.44,12.44,0,0,1,.35,2.82v53.06a10.1,10.1,0,0,1-.35,2.82H1135a10.52,10.52,0,0,1-.35-2.82V892.68l17.77,24.64a9.58,9.58,0,0,1,1.23,2.56h12.85A7.31,7.31,0,0,1,1164.12,917.59Zm-29.56-28.25V865.49h4.13c3.61,0,6.08.79,8.1,2.55a12.81,12.81,0,0,1,4,9.51c0,7-4.75,11.79-11.62,11.79Z"/><path class="cls-1" d="M726,250.31H696.47a31.71,31.71,0,0,1,1,7.94v66H624.55v-66a31.26,31.26,0,0,1,1-7.94H596a30.39,30.39,0,0,1,1,7.94V407.79a29.2,29.2,0,0,1-1,7.94h29.51a27.67,27.67,0,0,1-1-7.94V336.37h72.91v71.42a28,28,0,0,1-1,7.94H726a28,28,0,0,1-1-7.94V258.25A28,28,0,0,1,726,250.31Z"/><path class="cls-1" d="M891.64,408.78l-55.8-153a24.89,24.89,0,0,1-1.24-5.46H810.79a27.5,27.5,0,0,1-1.24,5.95L755.49,408.78a36.54,36.54,0,0,1-3.47,7h15.62a20.57,20.57,0,0,1,1-7l16.12-44.88h61.51l15.87,44.88a18,18,0,0,1,1.24,7h32.24A30,30,0,0,1,891.64,408.78Zm-102.92-57,26-74.65,26.79,74.65Z"/><path class="cls-1" d="M1000,408.54a27.43,27.43,0,0,1,3.48,7.19h36.2c-3.22-2-3.47-2.48-6.69-6.45l-54.31-71.43c8.92-1.73,12.89-2.72,18.35-5,16.86-6.44,26.29-19.84,26.29-37.69,0-26.79-21.08-44.89-51.84-44.89H921.15a34.64,34.64,0,0,1,1,7.94V407.79a28,28,0,0,1-1,7.94h29.76a30.44,30.44,0,0,1-1-7.94v-68.7Zm-50.34-78.87V262.46h11.66c10.16,0,17.11,2.23,22.81,7.19,7,6,11.16,16.37,11.16,26.79,0,19.59-13.39,33.23-32.73,33.23Z"/><path class="cls-1" d="M1063.5,415.73h85.81V401.1a37.75,37.75,0,0,1-9.43,1.23H1092v-65h48.36c4.71,0,5.7,0,8.93.74V324.71c-3.72,1-4.47,1-9.18,1H1092V262.46h49.35a20.9,20.9,0,0,1,7.69,1.24V250.31H1063.5a26.92,26.92,0,0,1,1,7.94V407.79A28,28,0,0,1,1063.5,415.73Z"/><path class="cls-1" d="M625.54,498.31H596a30.39,30.39,0,0,1,1,7.94V655.79a31.77,31.77,0,0,1-1,7.94h29.51a27.67,27.67,0,0,1-1-7.94V585.36l52.33,72.17c1.48,1.73,2,3,3,6.2h35.46l-2.48-2c-1.23-1.73-2.48-3.22-3.47-4.71l-65-88L695,504.26c2.48-3,3.22-4,5.95-5.95H680.59a33.87,33.87,0,0,1-3,5.46l-53.07,68V506.25A27.67,27.67,0,0,1,625.54,498.31Z"/><path class="cls-1" d="M849.23,657.28l-54.31-71.43c8.93-1.73,12.9-2.72,18.35-5,16.87-6.44,26.29-19.84,26.29-37.69,0-26.79-21.08-44.89-51.83-44.89H737.38a34.18,34.18,0,0,1,1,7.94V655.79a27.67,27.67,0,0,1-1,7.94h29.76a30.44,30.44,0,0,1-1-7.94v-68.7l50.1,69.45a27.4,27.4,0,0,1,3.47,7.19h36.21C852.7,661.74,852.46,661.25,849.23,657.28ZM765.9,577.67V510.46h11.66c10.17,0,17.11,2.23,22.82,7.19,6.94,6,11.16,16.37,11.16,26.79,0,19.59-13.4,33.23-32.74,33.23Z"/><path class="cls-1" d="M910.73,498.31H881.22a31.71,31.71,0,0,1,1,7.94V655.79a31.77,31.77,0,0,1-1,7.94h29.51a24.9,24.9,0,0,1-1-7.94V506.25A24.9,24.9,0,0,1,910.73,498.31Z"/><path class="cls-1" d="M1006.71,566c-27.78-12.64-34.23-18.84-34.23-32.48,0-14.14,11.66-24.56,27.28-24.56,11.16,0,21.33,3.72,34.72,13.4l5.21-17.61c-14.38-6.45-24.8-8.93-38.44-8.93-32.49,0-54.81,18.6-54.81,45.63,0,20.09,10.91,33,39.19,46.38,13.39,6.45,20.58,10.17,24,12.65,8.19,6,11.91,13.14,11.91,22.81,0,16.87-12.9,28.52-31.5,28.52-14.38,0-23.31-4-39.18-18.1l-5.71,19.84c17.11,9.18,29.27,12.65,45.88,12.65,14.63,0,27.78-3.72,36.71-10.17a50.86,50.86,0,0,0,20.08-40.42c0-10.42-3-19.84-9.17-27.78C1032.75,579.9,1024.07,574,1006.71,566Z"/><path class="cls-1" d="M1210.56,498.31h-29.51a31.71,31.71,0,0,1,1,7.94v66h-72.91v-66a31.26,31.26,0,0,1,1-7.94h-29.51a30.39,30.39,0,0,1,1,7.94V655.79a29.2,29.2,0,0,1-1,7.94h29.51a27.67,27.67,0,0,1-1-7.94V584.37H1182v71.42a28,28,0,0,1-1,7.94h29.51a27.67,27.67,0,0,1-1-7.94V506.25A27.67,27.67,0,0,1,1210.56,498.31Z"/><path class="cls-1" d="M1253.71,663.73h14.63a28,28,0,0,1-1-7.94v-127l92,128.72c1,1.49,2,2.73,2.72,4l1,2.23h24.05c-1-2.48-1.24-3.47-1.24-7.44v-150a23.65,23.65,0,0,1,1-7.94h-14.64a28.83,28.83,0,0,1,1,7.94V630.5L1283,504c-2.23-3-2.48-3.47-3-5.7h-26.29a30.39,30.39,0,0,1,1,7.94V655.79A31.77,31.77,0,0,1,1253.71,663.73Z"/><path class="cls-1" d="M1497.49,503.77a24.89,24.89,0,0,1-1.24-5.46h-23.81a28.11,28.11,0,0,1-1.24,5.95l-54.06,152.52a36.54,36.54,0,0,1-3.47,7h15.62a20.57,20.57,0,0,1,1-7l16.12-44.88h61.51l15.87,44.88a18,18,0,0,1,1.24,7h32.24a30,30,0,0,1-4-7Zm-47.12,96,26-74.65,26.78,74.65Z"/><path class="cls-1" d="M1764.28,785.56a78.4,78.4,0,0,0,63.42-76.93c0-.91,0-1.8-.07-2.7h.07V59.56h-27.29v630.9c0,1,.09,2,.09,3s0,2-.09,3v.87h-.07a52.71,52.71,0,0,1-105.13,0h0V697c-.08-1.19-.13-2.38-.13-3.59s0-2.39.13-3.58V79.93h0V59.56H1671V705.93h.07c0,.9-.07,1.79-.07,2.7a78.39,78.39,0,0,0,63,76.86,79.05,79.05,0,0,0-57.24,109.81,6.13,6.13,0,0,0,.65,1.58l.3.51a77.8,77.8,0,0,0,5.83,10.11l60,104a6.35,6.35,0,0,0,11,0l66.17-114.61a6.36,6.36,0,0,0,.82-2.49,79.08,79.08,0,0,0-57.29-108.83Z"/></svg>