<svg width="476" height="400" viewBox="0 0 476 400" fill="none" xmlns="http://www.w3.org/2000/svg">
<g opacity="0.4">
<path d="M9.00216 163.798C20.222 182.257 40.1281 193.27 58.4831 204.645C76.838 216.071 95.6067 230.135 101.811 250.817C110.704 280.598 90.5914 313.689 100.777 343.005C109.618 368.547 139.969 381.835 166.752 378.371C193.534 374.958 216.853 358.31 236.139 339.438C255.476 320.617 272.176 299.005 292.858 281.632C322.691 256.659 359.453 241.717 394.56 224.913C420.361 212.555 446.781 197.975 462.293 173.881C474.185 155.422 478.528 131.949 472.737 110.75C466.946 89.5512 450.763 71.1962 430.029 63.9576C397.921 52.6861 363.021 68.3525 333.498 85.2598C303.923 102.219 272.435 121.504 238.62 117.833C204.702 114.111 177.765 88.2069 146.018 75.8496C111.221 62.4065 68.7205 68.5593 33.8202 79.7791C0.988006 90.3785 -7.69829 136.292 9.00216 163.798Z" fill="#DCD0FF"/>
<path d="M396.938 43.0178C408.658 44.6724 420.36 46.3269 432.045 47.9814C435.871 48.5502 439.956 49.0672 443.524 47.4644C450.142 44.569 451.951 35.3656 449.004 28.7992C446.005 22.2327 439.697 17.8379 433.441 14.2703C425.272 9.61693 416.431 5.73911 407.124 4.44651C397.765 3.1539 387.838 4.60162 379.979 9.82374C374.136 13.7533 364.571 25.0765 368.346 32.7804C372.068 40.3809 389.855 42.0354 396.938 43.0178Z" fill="#DCD0FF"/>
</g>
<path d="M100.105 50.8769L99.8466 50.9286L99.6915 50.1531L99.8983 50.1013C101.708 49.6877 103.466 49.119 105.12 48.3434L105.482 49.0673C103.776 49.8945 101.966 50.4633 100.105 50.8769ZM93.9523 51.5491C91.9359 51.5491 89.9711 51.2906 88.0064 50.8252L88.2132 50.0496C90.0745 50.4633 91.9876 50.7218 93.9523 50.7218V51.5491ZM110.549 46.0167L110.032 45.3963C111.532 44.2071 112.928 42.9145 114.117 41.4151L114.789 41.9321C113.548 43.4315 112.101 44.8275 110.549 46.0167ZM82.4223 48.8605C80.6644 47.9815 78.9581 46.9474 77.407 45.7065L77.9758 45.0343C79.4752 46.2235 81.078 47.2576 82.7842 48.1366L82.4223 48.8605ZM117.995 37.0202L117.219 36.6583C118.098 34.952 118.719 33.1941 119.184 31.3327L120.011 31.5396C119.546 33.4526 118.874 35.2623 117.995 37.0202ZM73.2707 41.5185C72.0815 39.9673 71.0474 38.3128 70.2201 36.5549L70.9957 36.1929C71.7713 37.8992 72.7536 39.502 73.9428 41.0014L73.2707 41.5185ZM120.632 25.8004H119.804C119.804 23.8873 119.598 22.026 119.184 20.1646L119.96 20.0095C120.425 21.9226 120.632 23.8356 120.632 25.8004ZM69.1343 30.8674L68.3588 31.0225C67.9451 29.1095 67.7383 27.1964 67.79 25.2316L68.6173 25.2833C68.5656 27.1447 68.7724 29.006 69.1343 30.8674ZM117.633 15.7181C116.909 14.0118 115.927 12.3573 114.737 10.8579L115.41 10.3408C116.599 11.892 117.633 13.5982 118.408 15.3561L117.633 15.7181ZM69.3929 19.6993L68.5656 19.5442C69.0309 17.6311 69.7548 15.8215 70.6338 14.0635L71.4093 14.4255C70.5304 16.1317 69.8582 17.8897 69.3929 19.6993ZM110.808 6.77325C109.36 5.53235 107.757 4.49826 106.051 3.61929L106.413 2.89543C108.171 3.7744 109.826 4.9119 111.377 6.1528L110.808 6.77325ZM74.5633 9.77209L73.8911 9.20335C75.1837 7.75563 76.6314 6.35961 78.2343 5.22212L78.6996 5.84257C77.2002 6.98007 75.8042 8.32437 74.5633 9.77209ZM100.622 1.60283C98.7608 1.13749 96.8478 0.827267 94.9347 0.775563V0C96.9512 0.0517042 98.9159 0.310224 100.829 0.827266L100.622 1.60283ZM83.6632 2.99884L83.353 2.22328C84.9041 1.55113 86.6104 0.982378 88.3166 0.620449C88.5579 0.55151 88.7819 0.499808 88.9887 0.465338L89.1956 1.2409C88.937 1.29261 88.6785 1.34431 88.4717 1.39601C86.8172 1.75794 85.2143 2.32669 83.6632 2.99884Z" fill="#3E2B75"/>
<path d="M129.37 32.574C130.352 36.8138 127.664 40.9501 123.372 41.9325C119.081 42.8632 114.841 40.278 113.859 36.0899C112.876 31.8502 115.565 27.7138 119.856 26.7315C124.148 25.8008 128.388 28.386 129.37 32.574Z" fill="#3E2B75"/>
<path d="M393.061 80.4511C393.061 83.605 390.424 86.1902 387.167 86.1902C383.909 86.1902 381.272 83.605 381.272 80.4511C381.272 77.2971 383.909 74.7119 387.167 74.7119C390.424 74.7119 393.061 77.2971 393.061 80.4511Z" fill="#3E2B75"/>
<path d="M205.633 63.7515C205.633 67.164 202.79 69.9043 199.325 69.9043C195.861 69.9043 193.018 67.164 193.018 63.7515C193.018 60.3907 195.861 57.6504 199.325 57.6504C202.79 57.6504 205.633 60.3907 205.633 63.7515Z" fill="#3E2B75"/>
<path d="M210.649 82.6231C210.132 82.6231 209.633 82.5886 209.15 82.5197L209.253 81.6924C211.115 81.951 213.079 81.6924 214.786 80.9686L215.148 81.6924C213.7 82.3129 212.201 82.6231 210.649 82.6231ZM203.618 80.2447C202.015 79.0038 200.774 77.3493 200.05 75.4879L200.826 75.1777C201.498 76.9356 202.635 78.4351 204.135 79.5726L203.618 80.2447ZM219.853 78.0731L219.129 77.6078C220.266 76.1084 220.939 74.2987 221.094 72.4891L221.921 72.5408C221.766 74.5573 221.042 76.4703 219.853 78.0731ZM200.153 71.5584H199.326C199.326 69.5937 199.895 67.6289 200.929 65.9227L201.653 66.3363C200.67 67.9391 200.153 69.7488 200.153 71.5584ZM220.111 67.1119C219.284 65.4573 217.991 64.0613 216.44 63.0272L216.854 62.3551C218.612 63.4409 219.956 64.992 220.835 66.7499L220.111 67.1119ZM205.686 62.5619L205.324 61.838C207.082 60.9074 209.15 60.442 211.166 60.5454V61.3727C209.253 61.2693 207.34 61.6829 205.686 62.5619Z" fill="#3E2B75"/>
<path d="M400.041 102.374C398.024 102.27 396.06 101.702 394.25 100.771L394.664 100.047C396.37 100.926 398.179 101.443 400.093 101.598L400.041 102.374ZM405.987 101.598L405.728 100.823C407.538 100.202 409.192 99.2716 410.588 97.979L411.157 98.5478C409.658 99.9438 407.9 100.926 405.987 101.598ZM389.648 96.9966C388.407 95.4455 387.477 93.6876 386.96 91.7228L387.787 91.516C388.252 93.3256 389.131 94.9802 390.32 96.4796L389.648 96.9966ZM414.621 93.791L413.846 93.4807C414.621 91.7745 414.983 89.9649 414.983 88.0518H415.811C415.811 90.0683 415.449 91.9813 414.621 93.791ZM414.932 86.6041C414.725 84.7427 414.104 82.9848 413.174 81.3303L413.898 80.9166C414.88 82.6746 415.552 84.5359 415.759 86.5007L414.932 86.6041ZM387.477 86.0353L386.649 85.9319C386.96 83.9672 387.632 82.1058 388.718 80.4513L389.441 80.8649C388.407 82.4678 387.735 84.174 387.477 86.0353ZM409.399 77.2456C407.848 76.1081 406.142 75.3326 404.281 74.919L404.436 74.0917C406.452 74.557 408.262 75.3843 409.916 76.5735L409.399 77.2456ZM393.371 76.8837L392.906 76.2116C394.56 75.1258 396.421 74.3502 398.438 73.9883L398.593 74.8155C396.732 75.1258 394.974 75.8496 393.371 76.8837Z" fill="#3E2B75"/>
<path d="M229.592 329.653H149.916V356.953C176.182 350.955 202.861 345.992 229.592 341.39V329.653Z" fill="#DCD0FF"/>
<path d="M229.592 329.653H149.916V356.953C176.182 350.955 202.861 345.992 229.592 341.39V329.653Z" stroke="#121D30" stroke-width="0.775563" stroke-miterlimit="10"/>
<path d="M149.916 356.954V385.184H229.592V341.391C202.861 345.992 176.182 350.956 149.916 356.954Z" stroke="#121D30" stroke-width="0.775563" stroke-miterlimit="10"/>
<path d="M285.174 399.453H94.3341C93.0415 399.453 92.7313 397.644 93.9722 397.23L149.916 378.823H229.592L285.536 397.23C286.777 397.644 286.467 399.453 285.174 399.453Z" fill="#D3C5FF"/>
<path d="M285.174 399.453H94.3341C93.0415 399.453 92.7313 397.644 93.9722 397.23L149.916 378.823H229.592L285.536 397.23C286.777 397.644 286.467 399.453 285.174 399.453Z" stroke="#121D30" stroke-width="0.775563" stroke-miterlimit="10"/>
<path d="M220.544 378.824H227.731" stroke="#121D30" stroke-width="0.775563" stroke-miterlimit="10"/>
<path d="M149.916 378.824H213.202" stroke="#121D30" stroke-width="0.775563" stroke-miterlimit="10"/>
<path d="M346.237 335.806H33.1686C25.7232 335.806 19.6221 329.757 19.6221 322.26V115.495C19.6221 108.049 25.7232 102 33.1686 102H346.237C353.734 102 359.784 108.049 359.784 115.495V322.26C359.784 329.757 353.734 335.806 346.237 335.806Z" fill="#DEDEDE"/>
<path d="M346.237 335.806H33.1686C25.7232 335.806 19.6221 329.757 19.6221 322.26V115.495C19.6221 108.049 25.7232 102 33.1686 102H346.237C353.734 102 359.784 108.049 359.784 115.495V322.26C359.784 329.757 353.734 335.806 346.237 335.806Z" stroke="#121D30" stroke-width="0.775563" stroke-miterlimit="10"/>
<path d="M19.6729 311.765V322.261C19.6729 329.758 25.7222 335.807 33.1676 335.807H346.236C353.734 335.807 359.783 329.758 359.783 322.261V311.765H19.6729Z" fill="#D3C5FF"/>
<path d="M19.6729 311.765V322.261C19.6729 329.758 25.7222 335.807 33.1676 335.807H346.236C353.734 335.807 359.783 329.758 359.783 322.261V311.765H19.6729Z" stroke="#121D30" stroke-width="0.775563" stroke-miterlimit="10"/>
<path d="M31.7207 299.045V114.668C31.7207 113.479 32.7031 112.548 33.8406 112.548H345.565C346.703 112.548 347.685 113.479 347.685 114.668V299.045C347.685 300.234 346.703 301.165 345.565 301.165H33.8406C32.7031 301.165 31.7207 300.234 31.7207 299.045Z" fill="white"/>
<path d="M31.7207 299.045V114.668C31.7207 113.479 32.7031 112.548 33.8406 112.548H345.565C346.703 112.548 347.685 113.479 347.685 114.668V299.045C347.685 300.234 346.703 301.165 345.565 301.165H33.8406C32.7031 301.165 31.7207 300.234 31.7207 299.045Z" stroke="#121D30" stroke-width="0.775563" stroke-miterlimit="10"/>
<path d="M195.261 322.053C195.261 325.103 192.779 327.585 189.729 327.585C186.626 327.585 184.145 325.103 184.145 322.053C184.145 318.951 186.626 316.469 189.729 316.469C192.779 316.469 195.261 318.951 195.261 322.053Z" stroke="#121D30" stroke-width="0.775563" stroke-miterlimit="10"/>
<path d="M219.096 144.036L224.215 153.808H276.746C278.246 153.808 279.486 155.049 279.486 156.548V225.573C279.486 227.072 278.246 228.313 276.746 228.313H175.975C174.475 228.313 173.234 227.072 173.234 225.573V158.926V153.808V145.276C173.234 143.777 174.475 142.536 175.975 142.536H216.666C217.7 142.536 218.631 143.105 219.096 144.036Z" fill="#7256C3"/>
<path d="M206.791 192.018C206.791 181.212 215.529 172.422 226.335 172.422C237.141 172.422 245.931 181.212 245.931 192.018C245.931 202.824 237.141 211.562 226.335 211.562C215.529 211.562 206.791 202.824 206.791 192.018Z" fill="#3E2B75"/>
<path d="M234.711 199.308L227.421 192.018L234.711 184.728C234.97 184.418 234.97 183.952 234.711 183.642C234.401 183.384 233.936 183.384 233.626 183.642L226.335 190.932L219.097 183.642C218.787 183.384 218.321 183.384 218.011 183.642C217.701 183.952 217.701 184.418 218.011 184.728L225.301 192.018L218.011 199.308C217.701 199.567 217.701 200.084 218.011 200.343C218.321 200.653 218.787 200.653 219.097 200.343L226.335 193.052L233.626 200.343C233.936 200.653 234.401 200.653 234.711 200.343C234.97 200.084 234.97 199.567 234.711 199.308Z" fill="white"/>
<path d="M338.895 144.036L344.014 153.808H396.545C398.044 153.808 399.285 155.049 399.285 156.548V225.573C399.285 227.072 398.044 228.313 396.545 228.313H295.774C294.274 228.313 293.033 227.072 293.033 225.573V158.926V153.808V145.276C293.033 143.777 294.274 142.536 295.774 142.536H336.465C337.499 142.536 338.429 143.105 338.895 144.036Z" fill="#DCD0FF"/>
<path d="M326.59 192.018C326.59 181.212 335.328 172.422 346.186 172.422C356.992 172.422 365.73 181.212 365.73 192.018C365.73 202.824 356.992 211.562 346.186 211.562C335.328 211.562 326.59 202.824 326.59 192.018Z" fill="#3E2B75"/>
<path d="M354.51 199.308L347.22 192.018L354.51 184.728C354.82 184.418 354.82 183.952 354.51 183.642C354.2 183.384 353.735 183.384 353.424 183.642L346.186 190.932L338.896 183.642C338.585 183.384 338.12 183.384 337.81 183.642C337.5 183.952 337.5 184.418 337.81 184.728L345.1 192.018L337.81 199.308C337.5 199.567 337.5 200.084 337.81 200.343C338.12 200.653 338.585 200.653 338.896 200.343L346.186 193.052L353.424 200.343C353.735 200.653 354.2 200.653 354.51 200.343C354.82 200.084 354.82 199.567 354.51 199.308Z" fill="white"/>
<path d="M99.2972 144.036L104.364 153.808H156.947C158.447 153.808 159.636 155.049 159.636 156.548V225.573C159.636 227.072 158.447 228.313 156.947 228.313H56.1759C54.6247 228.313 53.4355 227.072 53.4355 225.573V158.926V153.808V145.276C53.4355 143.777 54.6247 142.536 56.1759 142.536H96.8671C97.8494 142.536 98.8318 143.105 99.2972 144.036Z" fill="#DCD0FF"/>
<path d="M86.9395 192.018C86.9395 181.212 95.7292 172.422 106.535 172.422C117.342 172.422 126.131 181.212 126.131 192.018C126.131 202.824 117.342 211.562 106.535 211.562C95.7292 211.562 86.9395 202.824 86.9395 192.018Z" fill="#3E2B75"/>
<path d="M114.911 199.308L107.62 192.018L114.911 184.728C115.169 184.418 115.169 183.952 114.911 183.642C114.6 183.384 114.135 183.384 113.825 183.642L106.535 190.932L99.2443 183.642C98.9858 183.384 98.4687 183.384 98.2102 183.642C97.9 183.952 97.9 184.418 98.2102 184.728L105.449 192.018L98.2102 199.308C97.9 199.567 97.9 200.084 98.2102 200.343C98.4687 200.653 98.9858 200.653 99.2443 200.343L106.535 193.052L113.825 200.343C114.135 200.653 114.6 200.653 114.911 200.343C115.169 200.084 115.169 199.567 114.911 199.308Z" fill="white"/>
<path d="M327.381 134.773C327.277 136.324 328.105 137.669 329.19 137.72C330.276 137.772 331.207 136.531 331.259 134.98C331.362 133.377 330.535 132.085 329.449 132.033C328.363 131.981 327.433 133.222 327.381 134.773Z" fill="#3E2B75"/>
<path opacity="0.5" d="M323.658 135.29C324.227 136.996 325.623 138.082 326.812 137.669C328.002 137.307 328.467 135.6 327.898 133.894C327.329 132.188 325.933 131.102 324.744 131.464C323.555 131.878 323.09 133.584 323.658 135.29Z" fill="#3E2B75"/>
<path d="M320.659 138.237C319.78 140.616 321.59 143.459 324.744 144.597C327.846 145.734 331.104 144.752 331.982 142.374C332.81 140.047 331 137.203 327.846 136.066C324.744 134.928 321.487 135.911 320.659 138.237Z" fill="#121D30"/>
<path d="M317.349 137.875C301.269 135.393 277.641 146.303 279.864 166.054C281.467 180.169 300.649 186.529 306.647 172.724C314.816 154.007 289.584 150.284 277.382 151.111C263.37 152.094 254.219 152.507 238.19 170.966C231.624 178.463 230.021 207.521 246.256 209.485" stroke="#121D30" stroke-width="0.775563" stroke-miterlimit="10" stroke-dasharray="5.7 5.7"/>
<path d="M137.782 139.376C132.302 147.39 141.867 157.783 149.157 160.833C165.961 167.865 177.181 150.699 193.312 152.302C207.117 153.698 215.7 163.056 208.358 178.568C203.808 188.133 181.886 190.925 182.661 177.12" stroke="#121D30" stroke-width="0.775563" stroke-miterlimit="10" stroke-dasharray="5.7 5.7"/>
<path d="M137.109 127.638C136.334 128.982 134.938 129.654 134.007 129.137C133.076 128.62 132.921 127.069 133.645 125.725C134.421 124.329 135.817 123.657 136.747 124.174C137.73 124.691 137.833 126.242 137.109 127.586V127.638Z" fill="#3E2B75"/>
<path opacity="0.5" d="M140.004 130.016C138.608 131.153 136.799 131.36 136.023 130.378C135.247 129.447 135.713 127.741 137.109 126.552C138.505 125.414 140.263 125.259 141.038 126.19C141.866 127.172 141.349 128.878 140.004 130.016Z" fill="#3E2B75"/>
<path d="M140.987 134.101C140.47 136.583 137.368 138.03 134.11 137.358C130.853 136.634 128.681 134.101 129.147 131.671C129.664 129.189 132.766 127.741 136.023 128.413C139.281 129.137 141.504 131.671 140.987 134.101Z" fill="#121D30"/>
<path d="M354.991 154.008C354.991 154.008 344.495 147.234 338.29 155.352C330.586 165.538 348.786 174.586 342.944 181.773C337.101 189.011 329.397 192.579 331.931 204.833C335.24 220.81 370.657 230.53 387.875 207.935C405.04 185.34 386.737 163.987 374.07 163.521C358.817 162.901 354.991 154.008 354.991 154.008Z" fill="#121D30"/>
<path d="M359.799 178.206L365.228 191.287C365.9 192.993 367.244 194.234 368.795 194.906C370.398 195.527 372.208 195.578 373.914 194.906C377.275 193.51 378.878 189.581 377.482 186.22L372.053 173.139L359.799 178.206Z" fill="#D28A7B"/>
<path d="M379.705 165.228C380.222 167.916 378.464 170.502 375.776 171.07C373.087 171.587 370.45 169.829 369.933 167.089C369.416 164.4 371.174 161.815 373.862 161.298C376.551 160.781 379.188 162.539 379.705 165.228Z" fill="#D28A7B"/>
<path d="M377.74 163.986L375.104 167.968" stroke="#121D30" stroke-width="0.775563" stroke-miterlimit="10"/>
<path d="M353.336 175.104C353.853 177.792 352.095 180.378 349.406 180.895C346.718 181.463 344.081 179.705 343.564 176.965C343.047 174.276 344.805 171.691 347.493 171.174C350.182 170.657 352.819 172.415 353.336 175.104Z" fill="#D28A7B"/>
<path d="M348.89 175.879C348.89 175.879 345.063 174.069 343.15 166.882L346.821 165.331L348.89 175.879Z" fill="#121D30"/>
<path d="M350.027 177.74L345.063 175.775" stroke="#121D30" stroke-width="0.775563" stroke-miterlimit="10"/>
<path d="M352.922 153.129C346.356 155.869 343.202 163.418 345.942 170.036L350.027 179.86C350.13 180.101 350.251 180.325 350.389 180.532C351.061 181.618 352.095 182.445 353.284 182.807L359.799 184.824C361.764 185.444 363.935 184.824 365.28 183.272L372.777 174.638C374.018 173.138 374.38 171.019 373.604 169.209L369.83 160.109C367.089 153.543 359.541 150.389 352.922 153.129Z" fill="#D28A7B"/>
<path d="M369.83 177.947L365.487 182.963C364.711 183.79 363.832 184.462 362.747 184.927L362.385 185.082" stroke="#121D30" stroke-width="0.775563" stroke-miterlimit="10"/>
<path d="M356.073 169.189L357.86 175.189L359.073 174.756" stroke="#121D30" stroke-width="0.775563" stroke-miterlimit="10"/>
<path d="M347.287 173.294L349.872 179.395C350.01 179.361 350.148 179.309 350.286 179.24C351.992 178.516 352.819 176.603 352.096 174.845C351.423 173.139 349.459 172.363 347.752 173.087C347.58 173.122 347.425 173.191 347.287 173.294Z" fill="#CB705D"/>
<path d="M363.108 170.295C363.832 172.001 365.797 172.829 367.503 172.105C369.209 171.381 370.037 169.416 369.313 167.71C368.589 166.004 366.624 165.228 364.918 165.9C363.212 166.624 362.436 168.589 363.108 170.295Z" fill="#CB705D"/>
<path d="M369.365 158.972L372.571 166.727C372.571 166.727 368.383 165.28 366.211 159.851L369.365 158.972Z" fill="#121D30"/>
<path d="M336.895 157.886C343.099 149.717 353.073 153.689 353.073 153.689C353.073 153.689 357.073 160.689 367.573 160.689C370.779 160.483 382.704 166.572 385.548 168.589C385.548 168.589 377.327 159.334 373.243 152.871C369.158 146.356 363.419 150.027 363.419 150.027C363.419 150.027 355.818 142.375 345.426 146.718C338.239 149.768 336.895 157.886 336.895 157.886Z" fill="#121D30"/>
<path d="M349.975 172.932C350.389 174.017 351.216 174.69 351.836 174.483C352.405 174.224 352.509 173.138 352.095 172.053C351.957 171.742 351.802 171.484 351.63 171.277L349.768 171.07C349.613 171.536 349.665 172.26 349.975 172.932Z" fill="#121D30"/>
<path d="M348.683 165.9C347.959 164.09 347.028 163.729 345.942 165.642L348.683 165.9Z" fill="#121D30"/>
<path d="M361.608 159.851C359.902 159.075 358.92 159.437 359.437 161.609L361.608 159.851Z" fill="#121D30"/>
<path d="M361.143 168.279C361.609 169.365 362.436 170.037 363.056 169.778C363.625 169.571 363.729 168.486 363.315 167.4C362.953 166.521 362.333 165.952 361.764 165.849L360.937 167.555C361.005 167.796 361.074 168.037 361.143 168.279Z" fill="#121D30"/>
<path d="M376.396 240.665L400.284 236.011L402.404 196.044C402.869 190.305 398.422 185.341 392.632 185.134L374.432 184.669L361.506 192.786C357.007 195.579 355.456 201.369 357.938 206.074L376.396 240.665Z" fill="#7256C3"/>
<path d="M361.712 180.997C362.591 180.532 362.332 179.239 361.557 178.153C361.143 177.533 360.574 177.016 360.006 176.861C359.282 176.706 359.023 177.947 359.23 179.188C359.437 180.584 360.161 181.876 361.712 180.997Z" fill="#121D30"/>
<path d="M359.178 178.826L361.35 177.895C360.936 177.378 360.471 177.016 360.006 176.861C359.333 176.706 359.075 177.688 359.178 178.826Z" fill="white"/>
<path d="M349.354 269.463L361.505 236.011L373.811 236.476C373.087 245.628 369.829 254.366 364.4 261.759L353.543 274.996L349.354 269.463Z" fill="#D28A7B"/>
<path d="M369.158 243.094C372.57 242.319 374.638 238.958 373.863 235.597L366.831 205.299C366.055 201.938 362.695 199.87 359.334 200.645C355.973 201.421 353.905 204.782 354.68 208.142L362.281 239.889C362.281 239.889 365.797 243.922 369.158 243.094Z" fill="#D28A7B"/>
<path d="M407.677 235.494C410.987 234.512 412.848 230.996 411.865 227.687L402.921 196.819C401.887 193.51 398.422 191.649 395.113 192.631C391.804 193.614 389.943 197.13 390.925 200.439L399.818 230.169C400.542 232.547 402.352 234.563 404.73 235.339C405.661 235.701 406.695 235.804 407.677 235.494Z" fill="#D28A7B"/>
<path d="M352.818 219.156L363.573 213.83L376.809 212.796L365.331 218.07L352.818 219.156Z" fill="#7256C3"/>
<path d="M352.146 207.315L356.334 222.568L374.844 217.759L361.505 192.786L356.955 195.423C352.87 197.801 350.854 202.713 352.146 207.315Z" fill="#7256C3"/>
<path d="M352.818 219.155L365.331 218.069L366.83 223.964L354.576 225.101L352.818 219.155Z" fill="white"/>
<path d="M366.831 200.025L360.368 189.373L379.033 179.446L382.756 193.406L366.831 200.025Z" fill="#7256C3"/>
<path fill-rule="evenodd" clip-rule="evenodd" d="M377.637 211.709C377.016 212.278 376.292 212.537 375.568 212.537C369.261 212.537 361.505 192.786 361.505 192.786C363.832 196.663 366.934 198.577 369.984 198.577C374.689 198.577 379.239 193.871 380.48 184.823C380.48 184.823 384.203 206.229 377.637 211.709ZM369.984 199.352C367.968 199.352 366.003 198.577 364.245 197.181C364.969 198.732 365.9 200.541 366.83 202.299C370.243 208.4 373.345 211.761 375.568 211.761C376.12 211.761 376.654 211.554 377.171 211.141C379.653 209.021 380.894 203.902 380.739 196.25C380.687 193.716 380.48 191.286 380.273 189.373C378.412 195.526 374.586 199.352 369.984 199.352Z" fill="white"/>
<path d="M366.21 387.659H353.594L358.712 348.622H371.38L366.21 387.659Z" fill="#D28A7B"/>
<path d="M367.398 387.607H353.231L355.506 369.045L369.57 370.131L367.398 387.607Z" fill="white"/>
<path d="M368.536 399.189H336.272L337.151 396.346C337.427 395.38 337.824 394.501 338.341 393.709C339.478 392.054 341.133 390.762 343.046 390.089L343.925 389.779C344.786 389.469 345.596 389.073 346.355 388.59C346.975 388.176 347.561 387.711 348.113 387.194C349.302 386.056 350.233 384.66 350.801 383.058H368.898L368.588 393.709L368.536 399.189Z" fill="#3E2B75"/>
<path d="M356.126 384.867H349.767" stroke="#121D30" stroke-width="0.775563" stroke-miterlimit="10"/>
<path d="M354.525 387.091H348.113" stroke="#121D30" stroke-width="0.775563" stroke-miterlimit="10"/>
<path d="M362.487 391.434C362.487 391.899 362.125 392.209 361.711 392.209C361.297 392.209 360.935 391.899 360.884 391.434C360.884 391.02 361.246 390.658 361.659 390.658C362.073 390.658 362.487 391.02 362.487 391.434Z" stroke="#121D30" stroke-width="0.775563" stroke-miterlimit="10"/>
<path d="M358.609 391.434C358.66 391.899 358.299 392.209 357.885 392.209C357.42 392.209 357.058 391.899 357.058 391.434C357.058 391.02 357.368 390.658 357.833 390.658C358.247 390.658 358.609 391.02 358.609 391.434Z" stroke="#121D30" stroke-width="0.775563" stroke-miterlimit="10"/>
<path d="M368.536 399.19H336.272L337.151 396.346C337.427 395.381 337.824 394.502 338.341 393.709H368.588L368.536 399.19Z" fill="#DEDEDE"/>
<path d="M368.691 396.449H348.423" stroke="#121D30" stroke-width="0.775563" stroke-miterlimit="10"/>
<path d="M354.369 399.189H336.272L337.151 396.345C337.427 395.38 337.824 394.501 338.341 393.709C339.478 392.054 341.133 390.761 343.046 390.089L343.925 389.779C344.786 389.469 345.596 389.072 346.355 388.59C350.543 390.503 353.645 394.484 354.369 399.189Z" fill="#DEDEDE"/>
<path d="M350.801 383.058L350.388 381.455C350.078 380.317 350.905 379.231 352.094 379.231H353.697C354.989 379.231 356.179 379.904 356.903 380.989L358.299 383.058H350.801Z" fill="#3E2B75"/>
<path d="M403.645 235.907L368.848 233.994L371.898 242.836L400.853 242.525L403.645 235.907Z" fill="#3E2B75"/>
<path d="M371.898 242.836C371.898 242.836 360.006 253.849 359.282 273.496H412.589C412.589 255.038 400.852 242.525 400.852 242.525L371.898 242.836Z" fill="#3E2B75"/>
<path d="M402.559 250.229H394.234C394.234 250.229 398.371 259.743 406.592 260.363" stroke="white" stroke-width="0.775563" stroke-miterlimit="10"/>
<path d="M366.211 250.229H370.813C370.813 250.229 369.055 259.226 361.558 260.363" stroke="white" stroke-width="0.775563" stroke-miterlimit="10"/>
<path d="M381.825 243.404L382.601 258.037C382.601 258.037 385.341 256.589 384.772 251.729" stroke="white" stroke-width="0.775563" stroke-miterlimit="10"/>
<path d="M391.546 244.335H399.146V241.336H391.546V244.335Z" fill="#121D30"/>
<path d="M373.087 244.335H375.724V241.336H373.087V244.335Z" fill="#121D30"/>
<path d="M377.482 244.335H389.426V241.336H377.482V244.335Z" fill="#121D30"/>
<path d="M379.705 244.956H384.824V240.716H379.705V244.956Z" fill="white"/>
<path d="M415.071 387.659L402.455 388.228L395.992 345.882L408.608 345.313L415.071 387.659Z" fill="#D28A7B"/>
<path d="M415.795 387.608L401.577 388.228L399.146 368.942L413.313 369.821L415.795 387.608Z" fill="#7256C3"/>
<path d="M418.535 399.189H386.323L386.582 396.346C386.685 395.38 386.926 394.501 387.306 393.709C388.133 392.054 389.477 390.762 391.339 390.089L392.114 389.779C392.941 389.469 393.665 389.073 394.286 388.59C394.872 388.176 395.371 387.711 395.785 387.194C396.767 386.056 397.388 384.66 397.698 383.058H415.795L417.604 393.709L418.535 399.189Z" fill="#3E2B75"/>
<path d="M403.386 384.867H397.026" stroke="#121D30" stroke-width="0.775563" stroke-miterlimit="10"/>
<path d="M402.196 387.091H395.785" stroke="#121D30" stroke-width="0.775563" stroke-miterlimit="10"/>
<path d="M410.986 391.433C411.089 391.898 410.831 392.208 410.365 392.208C409.952 392.208 409.538 391.898 409.435 391.433C409.331 391.019 409.59 390.657 410.055 390.657C410.469 390.657 410.882 391.019 410.986 391.433Z" stroke="#121D30" stroke-width="0.775563" stroke-miterlimit="10"/>
<path d="M407.16 391.433C407.264 391.898 406.953 392.208 406.54 392.208C406.126 392.208 405.661 391.898 405.557 391.433C405.506 391.019 405.764 390.657 406.178 390.657C406.643 390.657 407.057 391.019 407.16 391.433Z" stroke="#121D30" stroke-width="0.775563" stroke-miterlimit="10"/>
<path d="M418.535 399.19H386.323L386.582 396.346C386.685 395.381 386.926 394.502 387.306 393.709H417.604L418.535 399.19Z" fill="#DEDEDE"/>
<path d="M397.698 396.448H417.966" stroke="#121D30" stroke-width="0.775563" stroke-miterlimit="10"/>
<path d="M404.42 399.189H386.323L386.582 396.345C386.685 395.38 386.926 394.501 387.306 393.709C388.133 392.054 389.477 390.761 391.339 390.089L392.114 389.779C392.941 389.469 393.665 389.072 394.286 388.59C398.887 390.503 402.765 394.484 404.42 399.189Z" fill="#DEDEDE"/>
<path d="M397.698 383.058L396.974 381.455C396.457 380.317 397.078 379.231 398.215 379.231H399.87C401.111 379.231 402.455 379.904 403.386 380.989L405.195 383.058H397.698Z" fill="#3E2B75"/>
<path d="M384.721 272.565L377.172 364.961H350.751L359.334 272.927L384.721 272.565Z" fill="#3E2B75"/>
<path d="M408.401 314.911L417.708 364.961H391.287L383.015 315.273L408.401 314.911Z" fill="#3E2B75"/>
<path d="M408.401 314.911C408.401 314.911 412.589 287.456 412.589 273.393H386.169L383.015 315.273L408.401 314.911Z" fill="#3E2B75"/>
<path d="M404.162 190.924L411.917 202.61L392.425 215.432L383.842 184.927L393.459 185.082C397.75 185.134 401.783 187.305 404.162 190.924Z" fill="#7256C3"/>
<path d="M411.762 197.646L389.736 211.347L391.96 218.12L414.968 202.919L411.762 197.646Z" fill="white"/>
<path d="M361.764 219.931L362.849 209.745L358.868 206.074" stroke="#121D30" stroke-width="0.775563" stroke-miterlimit="10"/>
<path d="M352.871 266.516L336.326 259.277C335.498 261.139 336.377 263.31 338.239 264.138L340.514 265.12L342.065 268.894C342.582 281.614 353.543 274.995 353.543 274.995L352.871 266.516Z" fill="#D28A7B"/>
<path d="M342.737 264.034L345.788 275.926C339.118 276.392 334.465 277.064 334.465 277.064C331.828 275.099 330.328 272.152 329.501 269.722L337.463 268.067C334.103 267.499 330.742 267.964 329.087 268.274C328.674 266.723 328.57 265.637 328.57 265.637C336.533 263.983 342.737 264.034 342.737 264.034Z" fill="#D28A7B"/>
<path d="M348.373 274.323C341.393 273.6 342.479 266.361 342.479 266.361L338.239 264.138" stroke="#121D30" stroke-width="0.775563" stroke-miterlimit="10"/>
<path d="M330.38 271.842C336.429 271.17 339.273 270.808 339.273 270.808" stroke="#121D30" stroke-width="0.775563" stroke-miterlimit="10"/>
<path d="M332.189 274.582L340.1 273.444" stroke="#121D30" stroke-width="0.775563" stroke-miterlimit="10"/>
<path d="M373.087 364.961L382.29 270.549H386.892" stroke="white" stroke-width="0.775563" stroke-miterlimit="10"/>
<path d="M399.146 244.335C399.146 244.335 410.314 259.95 408.039 277.064C405.712 294.126 403.644 314.911 403.644 314.911L413.985 364.961" stroke="white" stroke-width="0.775563" stroke-miterlimit="10"/>
<path d="M413.83 373.389L399.663 372.872" stroke="#121D30" stroke-width="0.775563" stroke-miterlimit="10"/>
<path d="M369.571 373.13L355.146 371.94" stroke="#121D30" stroke-width="0.775563" stroke-miterlimit="10"/>
<path d="M253.546 220.188L264.404 241.025H376.034C379.239 241.025 381.824 243.61 381.824 246.816V393.397C381.824 396.603 379.239 399.188 376.034 399.188H161.978C158.773 399.188 156.136 396.603 156.136 393.397V251.883V241.025V222.877C156.136 219.671 158.773 217.086 161.978 217.086H248.428C250.599 217.086 252.564 218.275 253.546 220.188Z" fill="#7256C3"/>
<path d="M142.124 221.998C142.124 208.607 152.93 197.801 166.322 197.801C179.661 197.801 190.519 208.607 190.519 221.998C190.519 235.338 179.661 246.196 166.322 246.196C152.93 246.196 142.124 235.338 142.124 221.998Z" fill="#3E2B75"/>
<path d="M176.611 230.996L167.615 221.999L176.611 213.002C176.973 212.641 176.973 212.02 176.611 211.658C176.249 211.296 175.681 211.296 175.319 211.658L166.322 220.655L157.326 211.658C156.964 211.296 156.343 211.296 155.981 211.658C155.619 212.02 155.619 212.641 155.981 213.002L164.978 221.999L155.981 230.996C155.619 231.357 155.619 231.926 155.981 232.288C156.343 232.65 156.964 232.65 157.326 232.288L166.322 223.292L175.319 232.288C175.681 232.65 176.249 232.65 176.611 232.288C176.973 231.926 176.973 231.357 176.611 230.996Z" fill="white"/>
<path d="M233.589 364.701C260.682 328.043 294.807 343.089 303.441 364.701" stroke="#121D30" stroke-width="0.775563" stroke-miterlimit="10"/>
<path d="M227.901 288.024C227.901 297.589 223.61 305.345 218.336 305.345C213.062 305.345 208.822 297.589 208.822 288.024C208.822 278.459 213.062 270.703 218.336 270.703C223.61 270.703 227.901 278.459 227.901 288.024Z" fill="#121D30"/>
<path d="M328.207 288.024C328.207 297.589 323.967 305.345 318.693 305.345C313.419 305.345 309.128 297.589 309.128 288.024C309.128 283.836 309.955 280.01 311.299 277.063C313.057 273.185 315.694 270.703 318.693 270.703C323.967 270.703 328.207 278.459 328.207 288.024Z" fill="#121D30"/>
<path d="M315.074 264.809C322.468 256.639 328.466 256.432 330.379 269.203L315.074 264.809Z" fill="#121D30"/>
<path d="M218.646 251.779C211.253 243.61 205.255 243.403 203.342 256.174L218.646 251.779Z" fill="#121D30"/>
<path d="M383.015 246.404C377.327 244.905 372.881 240.717 372.881 240.717L367.09 249.972C375.621 255.918 380.998 254.78 383.945 253.643L383.015 246.404Z" fill="#D28A7B"/>
<path d="M372.881 240.717C372.881 240.717 367.711 238.907 363.316 240.458L361.041 246.559C361.041 246.559 365.798 246.197 368.383 247.904C368.383 247.904 363.264 247.593 360.834 249.145L361.868 250.851C361.868 250.851 366.521 250.024 370.916 251.833L372.881 240.717Z" fill="#D28A7B"/>
<path d="M362.747 242.008C362.747 242.008 367.504 241.698 370.865 242.422" stroke="#121D30" stroke-width="0.775563" stroke-miterlimit="10"/>
<path d="M361.816 244.387C361.816 244.387 366.108 243.819 370.037 245.111" stroke="#121D30" stroke-width="0.775563" stroke-miterlimit="10"/>
<path d="M399.353 228.617L380.532 248.627L383.273 253.849C394.699 249.816 405.299 242.577 411.4 232.495L399.353 228.617Z" fill="#D28A7B"/>
<path d="M364.815 206.074C358.817 224.688 362.074 228.669 374.07 228.927L364.815 206.074Z" fill="#7256C3"/>
<path d="M398.939 228.617L407.109 230.53" stroke="#121D30" stroke-width="0.775563" stroke-miterlimit="10"/>
<path d="M19 399.454H415.881" stroke="#938F99" stroke-width="1.03408" stroke-miterlimit="10"/>
</svg>
