<svg width="94" height="56" viewBox="0 0 94 56" fill="none" xmlns="http://www.w3.org/2000/svg">
<path d="M52.8306 33.895C52.8306 28.0199 53.8787 22.9733 55.9751 18.7553C58.0714 14.3866 60.7792 10.8464 64.0984 8.13481C67.4176 5.27256 71.1735 3.23886 75.3662 2.0337C79.7336 0.677901 84.0136 0 88.2063 0V7.90885C83.6642 7.90885 79.3842 9.26465 75.3662 11.9763C71.5229 14.5372 69.2519 18.0774 68.5531 22.5967C69.0772 22.4461 69.6886 22.2954 70.3874 22.1448C70.9115 21.9941 71.5229 21.8435 72.2217 21.6928C73.0952 21.5422 74.056 21.4669 75.1042 21.4669C80.345 21.4669 84.7124 23.1993 88.2063 26.6641C91.7002 29.9783 93.4471 33.895 93.4471 38.4144C93.4471 42.9337 91.6128 46.9258 87.9442 50.3906C84.4503 53.7048 79.7336 55.3619 73.794 55.3619C67.1556 55.3619 62.0021 53.2529 58.3335 49.0348C54.6649 44.6661 52.8306 39.6195 52.8306 33.895ZM0.422119 33.895C0.422119 28.0199 1.47029 22.9733 3.56663 18.7553C5.66296 14.3866 8.37074 10.8464 11.6899 8.13481C15.0091 5.27256 18.7651 3.23886 22.9578 2.0337C27.3251 0.677901 31.6052 0 35.7978 0V7.90885C31.2558 7.90885 26.9757 9.26465 22.9578 11.9763C19.1145 14.5372 16.8434 18.0774 16.1447 22.5967C16.6687 22.4461 17.2802 22.2954 17.979 22.1448C18.503 21.9941 19.1145 21.8435 19.8132 21.6928C20.6867 21.5422 21.6475 21.4669 22.6957 21.4669C27.9366 21.4669 32.3039 23.1993 35.7978 26.6641C39.2917 29.9783 41.0387 33.895 41.0387 38.4144C41.0387 42.9337 39.2044 46.9258 35.5358 50.3906C32.0419 53.7048 27.3251 55.3619 21.3855 55.3619C14.7471 55.3619 9.5936 53.2529 5.92501 49.0348C2.25642 44.6661 0.422119 39.6195 0.422119 33.895Z" fill="url(#paint0_linear_66_18)"/>
<defs>
<linearGradient id="paint0_linear_66_18" x1="46.9346" y1="0" x2="46.9346" y2="55.3619" gradientUnits="userSpaceOnUse">
<stop stop-color="#866DCF" stop-opacity="0"/>
<stop offset="1" stop-color="#866DCF"/>
</linearGradient>
</defs>
</svg>
