<svg width="1920" height="811" viewBox="0 0 1920 811" fill="none" xmlns="http://www.w3.org/2000/svg">
<path d="M-1 120.128C105.725 115.855 212.442 111.592 319.167 83.3591C425.891 55.1261 532.609 2.94312 639.333 0.629938C746.058 -1.68324 852.775 45.8734 959.5 55.7827C1066.22 65.692 1172.94 37.9439 1279.67 37.3984C1386.39 36.853 1493.11 63.5101 1599.83 92.5512C1706.56 121.592 1813.28 153.037 1920 184.472V809.537C1813.28 809.537 1706.56 809.537 1599.83 809.537C1493.11 809.537 1386.39 809.537 1279.67 809.537C1172.94 809.537 1066.22 809.537 959.5 809.537C852.775 809.537 746.058 809.537 639.333 809.537C532.609 809.537 425.891 809.537 319.167 809.537C212.442 809.537 105.725 809.537 -1 809.537V120.128Z" fill="#7256C3" fill-opacity="0.19"/>
<path d="M-1 55.7766C105.725 60.2918 212.442 64.8071 319.167 101.737C425.891 138.667 532.609 207.992 639.333 239.619C746.058 271.246 852.775 265.155 959.5 248.811C1066.22 232.467 1172.94 205.871 1279.67 156.89C1386.39 107.909 1493.11 36.5236 1599.83 46.5845C1706.56 56.6453 1813.28 148.132 1920 239.619V809.531C1813.28 809.531 1706.56 809.531 1599.83 809.531C1493.11 809.531 1386.39 809.531 1279.67 809.531C1172.94 809.531 1066.22 809.531 959.5 809.531C852.775 809.531 746.058 809.531 639.333 809.531C532.609 809.531 425.891 809.531 319.167 809.531C212.442 809.531 105.725 809.531 -1 809.531V55.7766Z" fill="#7256C3" fill-opacity="0.19"/>
<path d="M-1 276.386C105.725 240.093 212.442 203.799 319.167 175.273C425.891 146.747 532.609 125.989 639.333 138.505C746.058 151.02 852.775 196.819 959.5 239.618C1066.22 282.417 1172.94 322.206 1279.67 313.155C1386.39 304.104 1493.11 246.224 1599.83 221.234C1706.56 196.243 1813.28 204.142 1920 212.042V809.53C1813.28 809.53 1706.56 809.53 1599.83 809.53C1493.11 809.53 1386.39 809.53 1279.67 809.53C1172.94 809.53 1066.22 809.53 959.5 809.53C852.775 809.53 746.058 809.53 639.333 809.53C532.609 809.53 425.891 809.53 319.167 809.53C212.442 809.53 105.725 809.53 -1 809.53V276.386Z" fill="#7256C3" fill-opacity="0.19"/>
<path d="M-1 340.738C105.725 312.363 212.442 283.999 319.167 276.393C425.891 268.787 532.609 281.949 639.333 258.009C746.058 234.069 852.775 173.037 959.5 193.664C1066.22 214.29 1172.94 316.596 1279.67 331.546C1386.39 346.495 1493.11 274.1 1599.83 239.624C1706.56 205.149 1813.28 208.603 1920 212.048V809.536C1813.28 809.536 1706.56 809.536 1599.83 809.536C1493.11 809.536 1386.39 809.536 1279.67 809.536C1172.94 809.536 1066.22 809.536 959.5 809.536C852.775 809.536 746.058 809.536 639.333 809.536C532.609 809.536 425.891 809.536 319.167 809.536C212.442 809.536 105.725 809.536 -1 809.536V340.738Z" fill="#7256C3" fill-opacity="0.19"/>
<path d="M-1 313.164C105.725 369.236 212.442 425.318 319.167 414.278C425.891 403.237 532.609 325.084 639.333 313.164C746.058 301.245 852.775 355.549 959.5 349.933C1066.22 344.317 1172.94 278.77 1279.67 285.588C1386.39 292.406 1493.11 371.58 1599.83 377.509C1706.56 383.439 1813.28 316.134 1920 248.82V809.539C1813.28 809.539 1706.56 809.539 1599.83 809.539C1493.11 809.539 1386.39 809.539 1279.67 809.539C1172.94 809.539 1066.22 809.539 959.5 809.539C852.775 809.539 746.058 809.539 639.333 809.539C532.609 809.539 425.891 809.539 319.167 809.539C212.442 809.539 105.725 809.539 -1 809.539V313.164Z" fill="#7256C3" fill-opacity="0.19"/>
<path d="M-1 377.509C105.725 324.639 212.442 271.769 319.167 267.203C425.891 262.638 532.609 306.376 639.333 349.933C746.058 393.489 852.775 436.854 959.5 423.47C1066.22 410.085 1172.94 339.963 1279.67 340.74C1386.39 341.518 1493.11 413.187 1599.83 423.47C1706.56 433.753 1813.28 382.651 1920 331.548V809.539C1813.28 809.539 1706.56 809.539 1599.83 809.539C1493.11 809.539 1386.39 809.539 1279.67 809.539C1172.94 809.539 1066.22 809.539 959.5 809.539C852.775 809.539 746.058 809.539 639.333 809.539C532.609 809.539 425.891 809.539 319.167 809.539C212.442 809.539 105.725 809.539 -1 809.539V377.509Z" fill="#7256C3" fill-opacity="0.19"/>
<path d="M-1 395.901C105.725 376.154 212.442 356.406 319.167 368.325C425.891 380.245 532.609 423.831 639.333 414.286C746.058 404.74 852.775 342.072 959.5 349.941C1066.22 357.81 1172.94 436.205 1279.67 478.631C1386.39 521.056 1493.11 527.521 1599.83 515.399C1706.56 503.278 1813.28 472.57 1920 441.862V809.547C1813.28 809.547 1706.56 809.547 1599.83 809.547C1493.11 809.547 1386.39 809.547 1279.67 809.547C1172.94 809.547 1066.22 809.547 959.5 809.547C852.775 809.547 746.058 809.547 639.333 809.547C532.609 809.547 425.891 809.547 319.167 809.547C212.442 809.547 105.725 809.547 -1 809.547V395.901Z" fill="#7256C3" fill-opacity="0.19"/>
<path d="M-1 377.511C105.725 394.431 212.442 411.36 319.167 451.048C425.891 490.736 532.609 553.202 639.333 533.777C746.058 514.353 852.775 413.057 959.5 405.088C1066.22 397.118 1172.94 482.493 1279.67 524.585C1386.39 566.677 1493.11 565.505 1599.83 561.354C1706.56 557.202 1813.28 550.091 1920 542.969V809.541C1813.28 809.541 1706.56 809.541 1599.83 809.541C1493.11 809.541 1386.39 809.541 1279.67 809.541C1172.94 809.541 1066.22 809.541 959.5 809.541C852.775 809.541 746.058 809.541 639.333 809.541C532.609 809.541 425.891 809.541 319.167 809.541C212.442 809.541 105.725 809.541 -1 809.541V377.511Z" fill="#7256C3" fill-opacity="0.19"/>
<path d="M-1 644.073C105.725 655.942 212.442 667.811 319.167 644.073C425.891 620.335 532.609 561.001 639.333 552.152C746.058 543.303 852.775 584.941 959.5 588.921C1066.22 592.9 1172.94 559.233 1279.67 533.768C1386.39 508.303 1493.11 491.04 1599.83 506.191C1706.56 521.343 1813.28 568.92 1920 616.497V809.531C1813.28 809.531 1706.56 809.531 1599.83 809.531C1493.11 809.531 1386.39 809.531 1279.67 809.531C1172.94 809.531 1066.22 809.531 959.5 809.531C852.775 809.531 746.058 809.531 639.333 809.531C532.609 809.531 425.891 809.531 319.167 809.531C212.442 809.531 105.725 809.531 -1 809.531V644.073Z" fill="#7256C3" fill-opacity="0.19"/>
<path d="M-1 525.587C105.725 533.386 212.442 541.174 319.167 562.356C425.891 583.538 532.609 618.105 639.333 635.893C746.058 653.681 852.775 654.681 959.5 663.469C1066.22 672.257 1172.94 688.813 1279.67 700.238C1386.39 711.662 1493.11 717.945 1599.83 691.046C1706.56 664.146 1813.28 604.054 1920 543.972V810.543C1813.28 810.543 1706.56 810.543 1599.83 810.543C1493.11 810.543 1386.39 810.543 1279.67 810.543C1172.94 810.543 1066.22 810.543 959.5 810.543C852.775 810.543 746.058 810.543 639.333 810.543C532.609 810.543 425.891 810.543 319.167 810.543C212.442 810.543 105.725 810.543 -1 810.543V525.587Z" fill="#7256C3" fill-opacity="0.19"/>
</svg>
